<svg height="512" viewBox="0 0 192 192" width="512" xmlns="http://www.w3.org/2000/svg"><path d="m176 166.624a24.039 24.039 0 0 0 16-22.624c0-11.392-14.158-25.694-18.5-29.807a8 8 0 0 0 -11.006 0c-4.336 4.113-18.494 18.415-18.494 29.807a24.039 24.039 0 0 0 16 22.624v9.376h-8v-4.3a32.077 32.077 0 0 1 -16-27.7c0-11.038 8.571-22.618 16-30.582v-89.418a8 8 0 0 0 -8-8h-96a8 8 0 0 0 -8 8v89.418c7.429 7.965 16 19.544 16 30.582a32.077 32.077 0 0 1 -16 27.7v4.3h-8v-9.376a24.039 24.039 0 0 0 16-22.624c0-11.392-14.158-25.694-18.5-29.807a8 8 0 0 0 -11.006 0c-4.336 4.113-18.494 18.415-18.494 29.807a24.039 24.039 0 0 0 16 22.624v9.376h-16v16h192v-16h-16zm-64-126.624h16v24h-16zm0 40h16v24h-16zm0 40h16v24h-16zm-24-80h16v24h-16zm0 40h16v24h-16zm0 40h16v24h-16zm-24-80h16v24h-16zm0 40h16v24h-16zm0 40h16v24h-16zm24 56v-16h16v16z"/></svg>